#!OML:ASF F:\VICON\USERDATA\INSTALL\rory3\rory3.ASF
:FULLY-SPECIFIED
:DEGREES
3718
root -3.79828 18.1271 -3.12122 17.3021 -85.888 -4.34285
lowerback 25.1271 3.61025 -6.10859
upperback 10.0395 2.18278 -2.93664
thorax -2.94863 0.635243 -0.279035
lowerneck -7.14894 0.713338 -4.80033
upperneck 20.5267 -0.447802 8.67179
head 7.46215 0.0412948 3.60824
rclavicle -3.81667e-014 -2.38542e-015
rhumerus -25.0778 8.74221 -75.9384
rradius 44.9043
rwrist 4.02636
rhand -33.1731 4.11106
rfingers 7.12502
rthumb -6.38129 -25.7728
lclavicle -3.81667e-014 -2.38542e-015
lhumerus -30.4053 -23.8681 86.6518
lradius 23.4607
lwrist -2.5247
lhand -21.9409 22.2185
lfingers 7.12502
lthumb 4.46585 52.1515
rfemur -39.0795 6.74614 16.4114
rtibia 42.2621
rfoot -28.4023 -4.32303
rtoes -13.0209
lfemur -39.9719 1.88618 -18.7877
ltibia 38.3115
lfoot -9.55711 0.584945
ltoes 3.80232
3719
root -3.78357 18.1079 -3.1381 24.2571 -85.4792 -10.9711
lowerback 25.5321 3.39914 -5.61715
upperback 10.2543 1.97765 -2.91663
thorax -2.88723 0.532704 -0.487462
lowerneck -7.16724 0.625895 -4.70169
upperneck 20.6011 -0.521401 8.35226
head 7.49677 -0.012007 3.48085
rclavicle 4.77083e-014 -1.59028e-014
rhumerus -25.0114 8.73222 -75.9771
rradius 45.1856
rwrist 3.75888
rhand -33.3307 4.21292
rfingers 7.12502
rthumb -6.53345 -25.6663
lclavicle 4.77083e-014 -1.59028e-014
lhumerus -30.2453 -25.7619 86.8616
lradius 23.7991
lwrist -1.66956
lhand -22.261 22.3427
lfingers 7.12502
lthumb 4.15675 52.2819
rfemur -39.7476 6.25911 17.0133
rtibia 42.8524
rfoot -28.779 -6.81157
rtoes -12.5434
lfemur -40.7425 2.19096 -18.2403
ltibia 38.6912
lfoot -9.24189 0.170881
ltoes 3.6924
3720
root -3.76505 18.0922 -3.14863 26.0655 -85.387 -12.604
lowerback 26.1264 3.33842 -5.52463
upperback 10.4892 1.83566 -3.02014
thorax -2.90053 0.449665 -0.627823
lowerneck -7.15168 0.540041 -4.722
upperneck 20.6086 -0.618815 8.2648
head 7.50384 -0.0669434 3.44738
rclavicle -4.05521e-014 2.14687e-014
rhumerus -24.935 8.41978 -75.964
rradius 45.3068
rwrist 3.58563
rhand -33.4524 5.25314
rfingers 7.12502
rthumb -6.65097 -24.6224
lclavicle -4.05521e-014 2.14687e-014
lhumerus -29.7758 -26.852 86.7414
lradius 23.8652
lwrist -1.53607
lhand -22.2975 22.2596
lfingers 7.12502
lthumb 4.12145 52.1994
rfemur -40.3136 5.98225 17.0193
rtibia 43.4783
rfoot -28.9137 -8.88019
rtoes -11.9215
lfemur -41.2057 2.32645 -18.0968
ltibia 38.9426
lfoot -9.04083 0.06249
ltoes 3.3265
3721
root -3.75151 18.0795 -3.16266 27.3924 -85.5704 -13.7902
lowerback 26.7712 3.40576 -5.68642
upperback 10.6916 1.7804 -3.17868
thorax -2.97697 0.403372 -0.710662
lowerneck -7.19617 0.47176 -4.74034
upperneck 20.7002 -0.720443 8.28143
head 7.54938 -0.114354 3.45014
rclavicle 2.62396e-014 -1.19271e-014
rhumerus -24.8873 8.23797 -76.0551
rradius 45.3774
rwrist 3.42615
rhand -33.598 5.9109
rfingers 7.12502
rthumb -6.79153 -23.9602
lclavicle 2.62396e-014 -1.19271e-014
lhumerus -29.0892 -27.1001 86.2455
lradius 23.7473
lwrist -2.24289
lhand -21.9537 21.9945
lfingers 7.12502
lthumb 4.45352 51.9277
rfemur -40.8185 6.02009 16.768
rtibia 43.9926
rfoot -28.8305 -10.4813
rtoes -10.2857
lfemur -41.5586 2.42097 -17.9927
ltibia 39.2115
lfoot -9.02992 0.0699774
ltoes 4.03815
3722
root -3.74191 18.0694 -3.17871 29.6786 -85.8033 -15.9732
lowerback 27.377 3.54659 -5.83583
upperback 10.9234 1.82081 -3.30948
thorax -3.00206 0.400746 -0.79694
lowerneck -7.24984 0.386137 -4.74499
upperneck 20.7662 -0.852284 8.33433
head 7.59051 -0.171269 3.45964
rclavicle 2.22639e-014 -1.19271e-014
rhumerus -24.8569 8.16907 -76.1016
rradius 45.4715
rwrist 3.10233
rhand -33.8471 5.72129
rfingers 7.12502
rthumb -7.03195 -24.1419
lclavicle 2.22639e-014 -1.19271e-014
lhumerus -28.4161 -27.5726 85.7814
lradius 23.7272
lwrist -2.77386
lhand -21.7015 21.6577
lfingers 7.12502
lthumb 4.69702 51.5856
rfemur -41.2896 6.1704 16.4838
rtibia 44.4681
rfoot -28.6867 -11.758
rtoes -8.34072
lfemur -41.7984 2.62567 -17.8372
ltibia 39.396
lfoot -8.99556 -0.0286434
ltoes 6.14899
3723
root -3.73202 18.0588 -3.18938 30.0381 -85.8207 -16.0059
lowerback 27.7069 3.56897 -5.91107
upperback 11.1337 1.77276 -3.3745
thorax -2.91835 0.360448 -0.819058
lowerneck -7.18159 0.29753 -4.8536
upperneck 20.7452 -0.945802 8.28236
head 7.57821 -0.228603 3.45239
rclavicle 2.22639e-014 1.51076e-014
rhumerus -24.8567 8.2291 -75.9433
rradius 45.5554
rwrist 2.66498
rhand -33.9328 6.05055
rfingers 7.12502
rthumb -7.11469 -23.8099
lclavicle 2.22639e-014 1.51076e-014
lhumerus -27.9271 -28.5482 85.6455
lradius 23.884
lwrist -2.46831
lhand -21.7409 21.5886
lfingers 7.12502
lthumb 4.65899 51.5173
rfemur -41.9644 6.24869 15.9891
rtibia 44.8948
rfoot -28.3887 -12.9982
rtoes -6.46205
lfemur -42.3177 2.75227 -17.8503
ltibia 39.5498
lfoot -8.84616 -0.215875
ltoes 6.96521
3724
root -3.72119 18.0465 -3.19457 29.7579 -85.688 -15.2856
lowerback 27.8877 3.4757 -5.83247
upperback 11.3417 1.64043 -3.4257
thorax -2.76262 0.285498 -0.88332
lowerneck -7.11021 0.231799 -4.96418
upperneck 20.7673 -0.993222 8.14241
head 7.57622 -0.271769 3.42088
rclavicle -2.94201e-014 -1.66979e-014
rhumerus -24.8335 8.30316 -75.7817
rradius 45.6035
rwrist 2.47016
rhand -34.0451 6.13056
rfingers 7.12502
rthumb -7.2231 -23.7262
lclavicle -2.94201e-014 -1.66979e-014
lhumerus -27.1789 -28.7442 85.3324
lradius 23.8057
lwrist -2.63669
lhand -21.8515 21.8273
lfingers 7.12502
lthumb 4.55216 51.7584
rfemur -42.7012 6.2584 15.412
rtibia 45.2634
rfoot -27.863 -14.0694
rtoes -4.08031
lfemur -43.0162 2.83032 -17.9525
ltibia 39.6962
lfoot -8.65522 -0.345902
ltoes 5.39247
3725
root -3.71045 18.0346 -3.20081 30.6915 -85.5568 -15.8806
lowerback 28.1897 3.41444 -5.69404
upperback 11.5686 1.54596 -3.48973
thorax -2.64073 0.22911 -1.01024
lowerneck -7.03451 0.175859 -4.79818
upperneck 20.7559 -1.05078 7.92172
head 7.56285 -0.306136 3.31334
rclavicle 4.45278e-014 5.80451e-014
rhumerus -24.7482 8.2434 -75.7822
rradius 45.5553
rwrist 2.21959
rhand -34.2092 5.58534
rfingers 7.12502
rthumb -7.38148 -24.2659
lclavicle 4.45278e-014 5.80451e-014
lhumerus -26.2119 -28.4002 84.7651
lradius 23.5555
lwrist -3.35085
lhand -22.1206 22.0264
lfingers 7.12502
lthumb 4.29232 51.9629
rfemur -43.3121 6.28143 14.9244
rtibia 45.5762
rfoot -27.2299 -15.0185
rtoes -1.89392
lfemur -43.6015 2.98344 -17.9739
ltibia 39.8302
lfoot -8.45586 -0.427896
ltoes 3.68565
3726
root -3.69853 18.0256 -3.20691 32.1488 -85.3243 -16.9737
lowerback 28.5176 3.30879 -5.40968
upperback 11.7754 1.43473 -3.53955
thorax -2.55068 0.171509 -1.20007
lowerneck -7.0564 0.11764 -4.73374
upperneck 20.8597 -1.13826 7.87267
head 7.60712 -0.346093 3.28094
rclavicle -7.95139e-016 1.19271e-014
rhumerus -24.6745 8.40299 -75.7832
rradius 45.4998
rwrist 1.49057
rhand -34.3515 5.30699
rfingers 7.12502
rthumb -7.51882 -24.5394
lclavicle -7.95139e-016 1.19271e-014
lhumerus -25.4999 -28.8032 84.366
lradius 23.596
lwrist -3.20527
lhand -22.5603 22.2211
lfingers 7.12502
lthumb 3.86775 52.1657
rfemur -43.9063 6.18378 14.5346
rtibia 45.7871
rfoot -26.2689 -15.8748
rtoes -0.099013
lfemur -44.1822 3.00189 -17.8331
ltibia 39.9324
lfoot -8.25493 -0.503331
ltoes 3.33912
3727
root -3.68546 18.0168 -3.21356 32.7407 -84.9802 -17.1926
lowerback 28.8403 3.15992 -5.07965
upperback 11.9989 1.29113 -3.51287
thorax -2.44036 0.0987747 -1.32143
lowerneck -7.20193 0.0405868 -4.88915
upperneck 21.0582 -1.23422 7.89617
head 7.70631 -0.397111 3.31247
rclavicle 1.90833e-014 7.95139e-015
rhumerus -24.543 8.61583 -75.5518
rradius 45.3973
rwrist 1.26733
rhand -34.3356 5.63592
rfingers 7.12502
rthumb -7.50346 -24.211
lclavicle 1.90833e-014 7.95139e-015
lhumerus -24.8945 -29.5332 84.1764
lradius 23.8412
lwrist -2.47899
lhand -22.9396 22.73
lfingers 7.12502
lthumb 3.50142 52.681
rfemur -44.4261 5.86777 14.184
rtibia 45.8598
rfoot -24.8605 -16.7206
rtoes 1.30974
lfemur -44.7441 2.7126 -17.6056
ltibia 39.9965
lfoot -8.09841 -0.474701
ltoes 3.45555
3728
root -3.67515 18.0206 -3.22642 34.0495 -85.0554 -18.5207
lowerback 29.4437 3.30137 -5.13344
upperback 12.2975 1.36689 -3.46444
thorax -2.37864 0.10886 -1.27415
lowerneck -7.07858 -0.0283075 -4.63112
upperneck 20.9143 -1.2603 7.43535
head 7.63725 -0.429382 3.10891
rclavicle 7.15625e-015 1.74931e-014
rhumerus -24.3336 8.48946 -75.2716
rradius 45.1152
rwrist 1.91921
rhand -33.8575 6.15988
rfingers 7.12502
rthumb -7.04199 -23.703
lclavicle 7.15625e-015 1.74931e-014
lhumerus -24.1568 -29.7303 83.9678
lradius 23.9379
lwrist -2.22533
lhand -23.279 23.3562
lfingers 7.12502
lthumb 3.17368 53.3124
rfemur -44.4973 5.82547 13.8146
rtibia 45.8468
rfoot -23.3061 -17.5749
rtoes 1.8729
lfemur -44.7277 2.64536 -17.4142
ltibia 40.036
lfoot -8.12247 -0.403317
ltoes 3.70991
3729
root -3.67185 18.0382 -3.25852 40.4845 -85.7755 -25.2514
lowerback 30.2738 3.93655 -5.76102
upperback 12.5714 1.85667 -3.41073
thorax -2.45844 0.291588 -1.03345
lowerneck -6.71881 -0.0722865 -4.09492
upperneck 20.5404 -1.23136 6.71452
head 7.44499 -0.440872 2.7727
rclavicle 2.22639e-014 -3.57812e-014
rhumerus -24.1868 8.42745 -75.2088
rradius 44.8432
rwrist 2.11768
rhand -33.6915 5.97026
rfingers 7.12502
rthumb -6.88182 -23.8979
lclavicle 2.22639e-014 -3.57812e-014
lhumerus -23.4667 -29.8218 83.6654
lradius 24.0359
lwrist -2.11176
lhand -23.5624 23.5853
lfingers 7.12502
lthumb 2.89996 53.5453
rfemur -44.3362 6.54934 13.4641
rtibia 45.751
rfoot -21.8857 -18.2685
rtoes 2.50646
lfemur -44.2447 3.45735 -17.2187
ltibia 40.0495
lfoot -8.23065 -0.519233
ltoes 4.65344
3730
root -3.66244 18.0303 -3.27488 42.3997 -85.6426 -26.6336
lowerback 30.5393 3.92611 -5.69407
upperback 12.6713 1.82637 -3.37976
thorax -2.46169 0.27151 -1.03468
lowerneck -6.5126 -0.0895933 -3.97762
upperneck 20.3808 -1.20955 6.43832
head 7.35353 -0.447468 2.66035
rclavicle 2.46493e-014 3.65764e-014
rhumerus -24.0265 8.57491 -75.1391
rradius 44.6048
rwrist 2.06999
rhand -33.8825 5.82867
rfingers 7.12502
rthumb -7.06615 -24.0334
lclavicle 2.46493e-014 3.65764e-014
lhumerus -22.9006 -30.0794 83.37
lradius 24.2589
lwrist -1.76653
lhand -23.7371 23.5578
lfingers 7.12502
lthumb 2.73124 53.52
rfemur -45.0187 6.49009 13.0001
rtibia 45.6854
rfoot -20.8352 -18.91
rtoes 4.22467
lfemur -44.9368 3.4879 -17.0079
ltibia 40.0452
lfoot -7.99252 -0.572694
ltoes 5.57989
3731
root -3.6531 18.0284 -3.29735 43.6076 -85.5742 -27.3961
lowerback 30.9233 4.00107 -5.79047
upperback 12.7883 1.84495 -3.2971
thorax -2.50284 0.265526 -0.904908
lowerneck -6.58141 -0.11007 -4.10509
upperneck 20.4903 -1.22119 6.42664
head 7.40281 -0.461318 2.67926
rclavicle 1.82882e-014 -5.56597e-015
rhumerus -23.7883 8.54073 -74.8414
rradius 44.307
rwrist 2.6999
rhand -33.4342 6.23837
rfingers 7.12502
rthumb -6.63337 -23.6377
lclavicle 1.82882e-014 -5.56597e-015
lhumerus -22.2266 -30.1695 83.1269
lradius 24.3665
lwrist -1.67445
lhand -23.9146 23.5135
lfingers 7.12502
lthumb 2.55981 53.4779
rfemur -45.5933 6.53429 12.4369
rtibia 45.6142
rfoot -20.0831 -19.6459
rtoes 6.08101
lfemur -45.5063 3.41512 -16.806
ltibia 40.0388
lfoot -7.8392 -0.41558
ltoes 5.65806
3732
root -3.64243 18.0339 -3.31903 43.2322 -85.5906 -26.8114
lowerback 31.5306 4.12462 -5.97742
upperback 12.9622 1.86526 -3.20465
thorax -2.57714 0.250698 -0.719517
lowerneck -6.68628 -0.146199 -4.26278
upperneck 20.6051 -1.24531 6.40381
head 7.4613 -0.483287 2.69888
rclavicle -5.00937e-014 -7.39479e-014
rhumerus -23.5252 8.55168 -74.5138
rradius 43.9961
rwrist 3.42889
rhand -32.6325 6.38978
rfingers 7.12502
rthumb -5.85941 -23.5092
lclavicle -5.00937e-014 -7.39479e-014
lhumerus -21.547 -30.1994 82.9631
lradius 24.4413
lwrist -1.73766
lhand -24.099 23.292
lfingers 7.12502
lthumb 2.38175 53.2584
rfemur -45.8745 6.53609 11.779
rtibia 45.5722
rfoot -19.5722 -20.4757
rtoes 7.50437
lfemur -45.7927 3.31375 -16.7437
ltibia 40.0526
lfoot -7.75202 -0.267524
ltoes 5.19675
